<?xml version="1.0" standalone="no"?>
<!DOCTYPE svg PUBLIC "-//W3C//DTD SVG 20010904//EN"
 "http://www.w3.org/TR/2001/REC-SVG-20010904/DTD/svg10.dtd">
<svg version="1.0" xmlns="http://www.w3.org/2000/svg"
 width="162.000000pt" height="33.000000pt" viewBox="0 0 162.000000 33.000000"
 preserveAspectRatio="xMidYMid meet">

<g transform="translate(0.000000,33.000000) scale(0.100000,-0.100000)"
fill="#000000" stroke="none">
<path d="M1191 311 c-17 -11 -7 -41 13 -41 22 0 30 20 15 36 -9 8 -19 10 -28
5z"/>
<path d="M1086 302 c-3 -5 -4 -53 -3 -108 2 -94 3 -99 25 -102 22 -3 22 -2 22
107 0 103 -1 111 -19 111 -11 0 -22 -4 -25 -8z"/>
<path d="M60 184 c0 -107 -1 -116 -20 -121 -31 -8 -25 -33 8 -33 53 0 62 23
62 153 l0 117 -25 0 -25 0 0 -116z"/>
<path d="M780 195 l0 -105 25 0 c23 0 25 4 25 45 0 41 2 45 25 45 18 0 25 5
25 20 0 15 -7 20 -25 20 -20 0 -25 5 -25 25 0 23 4 25 40 25 29 0 40 4 40 15
0 12 -14 15 -65 15 l-65 0 0 -105z"/>
<path d="M161 233 c-12 -10 -24 -35 -27 -55 -5 -30 -2 -41 19 -62 26 -26 69
-34 96 -17 20 13 3 34 -22 27 -21 -5 -47 9 -47 25 0 5 23 9 51 9 l51 0 -6 33
c-3 17 -14 38 -23 45 -24 17 -67 15 -92 -5z m67 -36 c3 -12 -4 -17 -22 -17
-28 0 -33 9 -14 28 15 15 32 10 36 -11z"/>
<path d="M334 235 c-45 -31 -35 -129 14 -142 14 -3 33 -1 44 6 11 7 18 7 18 1
0 -5 9 -10 20 -10 18 0 20 7 20 79 0 79 -5 88 -35 69 -6 -4 -17 -3 -25 3 -21
12 -32 11 -56 -6z m64 -27 c31 -31 0 -105 -33 -78 -17 14 -19 43 -5 71 12 22
21 24 38 7z"/>
<path d="M500 170 c0 -79 0 -80 25 -80 24 0 25 3 25 59 0 51 3 61 20 66 32 10
40 -3 40 -66 0 -53 2 -59 20 -59 19 0 21 5 18 71 -4 84 -18 101 -68 82 -17 -6
-32 -7 -36 -2 -3 5 -14 9 -25 9 -17 0 -19 -7 -19 -80z"/>
<path d="M929 231 c-33 -27 -33 -95 0 -122 24 -20 67 -25 90 -10 20 13 3 34
-22 27 -21 -5 -47 9 -47 25 0 5 23 9 51 9 l52 0 -7 33 c-11 57 -70 76 -117 38z
m69 -34 c3 -12 -4 -17 -22 -17 -28 0 -33 9 -14 28 15 15 32 10 36 -11z"/>
<path d="M1180 170 c0 -79 0 -80 25 -80 25 0 25 1 25 80 0 79 0 80 -25 80 -25
0 -25 -1 -25 -80z"/>
<path d="M1280 135 c0 -108 1 -115 20 -115 17 0 20 7 20 41 0 36 2 40 21 34
47 -15 89 20 89 75 0 56 -52 97 -87 69 -13 -11 -17 -11 -20 -1 -3 6 -13 12
-24 12 -18 0 -19 -8 -19 -115z m106 50 c12 -49 -34 -86 -56 -46 -14 27 -13 47
5 65 20 19 44 10 51 -19z"/>
<path d="M1486 229 c-35 -27 -36 -86 -3 -117 27 -26 79 -29 97 -7 13 16 12 17
-40 19 -15 1 -26 8 -28 19 -3 14 4 17 42 17 44 0 46 1 46 28 0 58 -64 81 -114
41z m64 -13 c0 -2 3 -11 6 -20 5 -12 0 -16 -20 -16 -24 0 -35 18 -19 33 7 8
33 10 33 3z"/>
</g>
</svg>
